<svg width="600" height="450" viewBox="0 0 600 450" fill="none" xmlns="http://www.w3.org/2000/svg">
<g filter="url(#filter0_d)">
<path d="M151.9 199.2C151.9 193.1 152.8 187.8 154.6 183.5C156.4 179.2 158.7 175.6 161.5 172.7C164.3 169.8 167.3 167.6 170.7 165.9C174.1 164.3 177.3 163 180.5 162.2C183.7 161.4 186.5 160.9 189.1 160.7C191.7 160.5 193.5 160.4 194.8 160.4H198.1C199.3 160.4 201.2 160.5 203.8 160.7C206.4 160.9 209.2 161.4 212.3 162.2C215.4 163 218.7 164.3 222 165.9C225.4 167.5 228.4 169.8 231.1 172.7C233.8 175.6 236.1 179.2 237.8 183.5C239.6 187.8 240.4 193 240.4 199.2V256.5C240.4 262.8 239.5 268.2 237.8 272.6C236 277 233.8 280.7 231.1 283.6C228.4 286.5 225.3 288.9 222 290.5C218.7 292.1 215.4 293.5 212.3 294.3C209.2 295.1 206.3 295.6 203.8 295.8C201.2 296 199.4 296.1 198.1 296.1H194.7C193.5 296.1 191.6 296 189 295.8C186.4 295.6 183.6 295.1 180.4 294.3C177.2 293.5 174 292.2 170.6 290.5C167.2 288.8 164.2 286.5 161.4 283.6C158.6 280.7 156.3 277 154.5 272.6C152.7 268.2 151.8 262.8 151.8 256.5V199.2H151.9ZM183.7 260.2C183.8 262.6 184.4 264.6 185.3 266.4C186.1 268 187.4 269.4 189.1 270.7C190.8 272 193.2 272.6 196.3 272.6C199.4 272.6 201.7 272 203.4 270.7C205.1 269.4 206.3 268 207.1 266.4C208 264.6 208.5 262.5 208.7 260.2V197.7C208.5 195.4 208 193.3 207.1 191.5C206.3 190 205 188.5 203.4 187.2C201.7 185.9 199.4 185.2 196.3 185.2C193.2 185.2 190.8 185.9 189.1 187.2C187.4 188.5 186.1 189.9 185.3 191.5C184.3 193.4 183.8 195.4 183.7 197.7V260.2Z" fill="black"/>
<path d="M259.7 183.1C259.7 180.4 259.8 177.7 259.9 175C260.1 172.4 260.6 170 261.5 168C262.4 166 263.8 164.3 265.8 163.1C267.7 161.9 270.5 161.2 274.1 161.2H305.7C313.6 161.6 320.6 163.2 326.8 166.2C329.4 167.5 332 169.1 334.5 170.9C337 172.8 339.3 175.1 341.3 177.9C343.3 180.7 344.9 184 346.1 187.7C347.3 191.5 347.9 195.8 347.9 200.8C347.9 201.8 347.8 203.2 347.6 204.9C347.4 206.6 347 208.4 346.4 210.5C345.8 212.5 344.9 214.6 343.8 216.8C342.7 219 341.3 221.1 339.5 223C337.7 225 335.5 226.8 332.9 228.5C330.3 230.2 327.3 231.5 323.7 232.5C325.9 233.4 328.2 234.6 330.5 236C332.8 237.4 334.9 239.3 336.7 241.5C338.6 243.7 340.1 246.4 341.3 249.6C342.5 252.7 343.1 256.4 343.1 260.5V274.2C343.1 275 343.3 275.6 343.7 276.1C344.1 276.6 344.5 277.1 344.8 277.4C346.3 278.9 347.2 280.3 347.5 281.4C347.8 282.5 347.9 283.4 347.9 284.1C347.9 286.3 347.5 288.2 346.6 289.8C345.7 291.3 344.5 292.6 343.1 293.5C341.7 294.5 340 295.1 338.2 295.6C336.4 296 334.5 296.2 332.6 296.2C330.5 296.2 328.3 295.9 326.2 295.2C324 294.5 322 293.6 320.3 292.3C318.5 291 317.1 289.4 315.9 287.5C314.8 285.6 314.2 283.4 314.2 280.9V260.6C314.2 257.8 314 255.2 313.6 252.8C313.2 250.4 312.5 248.4 311.4 246.7C310.3 245 308.8 243.6 306.9 242.7C305 241.8 302.5 241.3 299.4 241.3H288.7V273.3C288.7 276.1 288.6 278.9 288.5 281.5C288.3 284.2 287.8 286.6 286.9 288.6C286 290.7 284.6 292.3 282.6 293.6C280.6 294.8 277.8 295.5 274.2 295.5C270.6 295.5 267.9 294.9 265.9 293.6C263.9 292.4 262.5 290.7 261.6 288.6C260.7 286.5 260.2 284.1 260 281.5C259.8 278.8 259.8 276.1 259.8 273.3V183.1H259.7ZM301.7 219.8C304.9 219.7 307.8 218.9 310.3 217.5C311.4 216.9 312.4 216.2 313.5 215.3C314.5 214.4 315.4 213.3 316.3 211.9C317.1 210.6 317.8 209 318.3 207.2C318.8 205.4 319 203.3 319 201C319 198.9 318.8 197 318.3 195.4C317.8 193.8 317.2 192.3 316.4 191.1C315.6 189.9 314.8 188.9 313.8 188C312.8 187.2 311.8 186.5 310.8 186C308.4 184.8 305.6 184.1 302.6 183.9H288.8V219.7H301.7V219.8Z" fill="black"/>
<path d="M453.5 247C453.6 251.3 453.8 255.8 454 260.3C454.2 264.8 454.3 269.2 454.3 273.4V276.3C454.3 278.7 454.2 281.1 454.1 283.3C453.9 285.6 453.4 287.6 452.6 289.4C451.8 291.2 450.5 292.7 448.7 293.8C446.9 294.9 444.4 295.4 441.1 295.4C437.8 295.4 435.2 294.9 433.4 293.8C431.6 292.7 430.3 291.3 429.4 289.5C428.5 287.7 428 285.7 427.9 283.4C427.7 281.1 427.7 278.7 427.7 276.3V262.9H389.4V276.3C389.4 278.7 389.3 281.1 389.2 283.4C389 285.7 388.5 287.7 387.7 289.5C386.9 291.3 385.5 292.7 383.7 293.8C381.9 294.9 379.4 295.4 376 295.4C372.7 295.4 370.1 294.9 368.3 293.8C366.5 292.7 365.2 291.3 364.4 289.4C363.6 287.6 363.1 285.5 363 283.3C362.9 281 362.8 278.7 362.8 276.3V273.4C362.8 271.4 362.8 269.3 362.8 267.1C362.8 264.9 362.9 262.6 362.9 260.3C363 258 363 255.7 363.1 253.4C363.2 251.1 363.2 249 363.3 246.9C366.5 235.8 369.8 224.5 373.4 213.1C376.9 201.7 380.3 190.4 383.5 179.2C384.1 176.8 384.9 174.6 385.8 172.3C386.7 170.1 387.9 168.2 389.3 166.5C390.8 164.9 392.7 163.6 395 162.6C397.3 161.6 400.2 161.1 403.8 161.1H413.4C416.9 161.1 419.8 161.6 422.2 162.6C424.5 163.6 426.4 164.9 427.9 166.5C429.4 168.1 430.5 170 431.4 172.3C432.3 174.5 433 176.8 433.7 179.2L453.5 247ZM393.3 237.6H423.8L409.6 186.2H407.5L393.3 237.6Z" fill="black"/>
</g>
<g filter="url(#filter1_d)">
<path d="M145 192.8C145 186.7 145.9 181.4 147.7 177.1C149.5 172.8 151.8 169.2 154.6 166.3C157.4 163.4 160.4 161.2 163.8 159.5C167.2 157.9 170.4 156.6 173.6 155.8C176.8 155 179.6 154.5 182.2 154.3C184.8 154.1 186.6 154 187.9 154H191.2C192.4 154 194.3 154.1 196.9 154.3C199.5 154.5 202.3 155 205.4 155.8C208.5 156.6 211.8 157.9 215.1 159.5C218.5 161.1 221.5 163.4 224.2 166.3C226.9 169.2 229.2 172.8 230.9 177.1C232.7 181.4 233.5 186.6 233.5 192.8V250.1C233.5 256.4 232.6 261.8 230.9 266.2C229.1 270.6 226.9 274.3 224.2 277.2C221.5 280.1 218.4 282.5 215.1 284.1C211.7 285.8 208.5 287.1 205.4 287.9C202.3 288.7 199.4 289.2 196.9 289.4C194.3 289.6 192.5 289.7 191.2 289.7H187.9C186.7 289.7 184.8 289.6 182.2 289.4C179.6 289.2 176.8 288.7 173.6 287.9C170.4 287.1 167.2 285.8 163.8 284.1C160.4 282.4 157.4 280.1 154.6 277.2C151.8 274.3 149.5 270.6 147.7 266.2C145.9 261.8 145 256.4 145 250.1V192.8ZM176.8 253.8C176.9 256.2 177.5 258.2 178.4 260C179.2 261.6 180.5 263 182.2 264.3C183.9 265.6 186.3 266.2 189.4 266.2C192.5 266.2 194.8 265.6 196.5 264.3C198.2 263 199.4 261.6 200.2 260C201.1 258.2 201.6 256.1 201.8 253.8V191.3C201.6 189 201.1 186.9 200.2 185.1C199.4 183.6 198.1 182.1 196.5 180.8C194.8 179.5 192.5 178.8 189.4 178.8C186.3 178.8 183.9 179.5 182.2 180.8C180.5 182.1 179.2 183.5 178.4 185.1C177.4 187 176.9 189 176.8 191.3V253.8Z" fill="#C50000"/>
<path d="M251.7 176.7C251.7 174 251.8 171.3 251.9 168.6C252.1 166 252.6 163.6 253.5 161.6C254.4 159.6 255.8 157.9 257.8 156.7C259.8 155.5 262.5 154.8 266.1 154.8H297.8C305.7 155.2 312.7 156.8 318.9 159.8C321.5 161.1 324.1 162.7 326.6 164.5C329.1 166.4 331.4 168.7 333.4 171.5C335.4 174.3 337 177.6 338.2 181.3C339.4 185.1 340 189.4 340 194.4C340 195.4 339.9 196.8 339.7 198.5C339.5 200.2 339.1 202 338.5 204.1C337.9 206.1 337 208.2 335.9 210.4C334.8 212.6 333.4 214.7 331.6 216.6C329.8 218.6 327.6 220.4 325 222.1C322.4 223.8 319.4 225.1 315.8 226.1C318 227 320.3 228.2 322.6 229.6C324.9 231 327 232.9 328.8 235.1C330.7 237.3 332.2 240 333.4 243.2C334.6 246.3 335.2 250 335.2 254.1V267.7C335.2 268.5 335.4 269.1 335.8 269.6C336.2 270.1 336.6 270.6 336.9 270.9C338.4 272.4 339.3 273.8 339.6 274.9C339.9 276 340 276.9 340 277.6C340 279.8 339.6 281.7 338.7 283.3C337.8 284.8 336.6 286.1 335.2 287C333.8 288 332.1 288.6 330.3 289.1C328.5 289.5 326.6 289.7 324.7 289.7C322.6 289.7 320.4 289.4 318.3 288.7C316.1 288 314.1 287.1 312.4 285.8C310.6 284.5 309.2 282.9 308 281C306.9 279.1 306.3 276.9 306.3 274.4V254.1C306.3 251.3 306.1 248.7 305.7 246.3C305.3 243.9 304.6 241.9 303.5 240.2C302.4 238.5 300.9 237.1 299 236.2C297.1 235.2 294.6 234.8 291.5 234.8H280.8V266.8C280.8 269.6 280.7 272.4 280.6 275C280.4 277.7 279.9 280.1 279 282.1C278.1 284.2 276.7 285.8 274.7 287.1C272.7 288.3 269.9 289 266.3 289C262.7 289 260 288.4 258 287.1C256 285.8 254.6 284.2 253.7 282.1C252.8 280 252.3 277.6 252.1 275C251.9 272.3 251.9 269.6 251.9 266.8V176.7H251.7ZM293.7 213.3C296.9 213.2 299.8 212.4 302.3 211C303.4 210.4 304.4 209.7 305.5 208.8C306.5 207.9 307.4 206.8 308.3 205.4C309.2 204 309.8 202.5 310.3 200.7C310.8 198.9 311 196.8 311 194.5C311 192.4 310.8 190.5 310.3 188.9C309.8 187.3 309.2 185.8 308.4 184.6C307.6 183.4 306.8 182.4 305.8 181.5C304.8 180.7 303.8 180 302.8 179.5C300.4 178.3 297.6 177.6 294.6 177.4H280.8V213.2H293.7V213.3Z" fill="#C50000"/>
<path d="M445.6 240.5C445.7 244.8 445.9 249.3 446.1 253.8C446.3 258.3 446.4 262.7 446.4 266.9V269.8C446.4 272.2 446.3 274.6 446.2 276.8C446 279.1 445.5 281.1 444.7 282.9C443.9 284.7 442.6 286.2 440.8 287.3C439 288.4 436.5 288.9 433.2 288.9C429.9 288.9 427.3 288.4 425.5 287.3C423.7 286.2 422.4 284.8 421.5 283C420.6 281.2 420.1 279.2 420 276.9C419.8 274.6 419.8 272.2 419.8 269.8V256.4H381.5V269.8C381.5 272.2 381.4 274.6 381.3 276.9C381.1 279.2 380.6 281.2 379.8 283C378.9 284.8 377.6 286.2 375.8 287.3C374 288.4 371.5 288.9 368.1 288.9C364.8 288.9 362.2 288.4 360.4 287.3C358.6 286.2 357.3 284.8 356.5 282.9C355.7 281.1 355.2 279 355.1 276.8C355 274.5 354.9 272.2 354.9 269.8V266.9C354.9 264.9 354.9 262.8 354.9 260.6C354.9 258.4 355 256.1 355 253.8C355 251.5 355.1 249.2 355.2 246.9C355.3 244.6 355.3 242.5 355.4 240.4C358.6 229.3 361.9 218 365.5 206.6C369 195.2 372.4 183.9 375.6 172.7C376.2 170.3 377 168.1 377.9 165.8C378.8 163.6 380 161.7 381.4 160C382.9 158.4 384.8 157.1 387.1 156.1C389.4 155.1 392.3 154.6 395.9 154.6H405.5C409 154.6 411.9 155.1 414.3 156.1C416.6 157.1 418.5 158.4 420 160C421.5 161.6 422.6 163.5 423.5 165.8C424.4 168 425.1 170.3 425.8 172.7L445.6 240.5ZM385.4 231.1H415.8L401.6 179.7H399.5L385.4 231.1Z" fill="#C50000"/>
</g>
<defs>
<filter id="filter0_d" x="147.8" y="160.4" width="310.5" height="143.8" filterUnits="userSpaceOnUse" color-interpolation-filters="sRGB">
<feFlood flood-opacity="0" result="BackgroundImageFix"/>
<feColorMatrix in="SourceAlpha" type="matrix" values="0 0 0 0 0 0 0 0 0 0 0 0 0 0 0 0 0 0 127 0"/>
<feOffset dy="4"/>
<feGaussianBlur stdDeviation="2"/>
<feColorMatrix type="matrix" values="0 0 0 0 0 0 0 0 0 0 0 0 0 0 0 0 0 0 0.25 0"/>
<feBlend mode="normal" in2="BackgroundImageFix" result="effect1_dropShadow"/>
<feBlend mode="normal" in="SourceGraphic" in2="effect1_dropShadow" result="shape"/>
</filter>
<filter id="filter1_d" x="141" y="154" width="309.4" height="143.7" filterUnits="userSpaceOnUse" color-interpolation-filters="sRGB">
<feFlood flood-opacity="0" result="BackgroundImageFix"/>
<feColorMatrix in="SourceAlpha" type="matrix" values="0 0 0 0 0 0 0 0 0 0 0 0 0 0 0 0 0 0 127 0"/>
<feOffset dy="4"/>
<feGaussianBlur stdDeviation="2"/>
<feColorMatrix type="matrix" values="0 0 0 0 0 0 0 0 0 0 0 0 0 0 0 0 0 0 0.25 0"/>
<feBlend mode="normal" in2="BackgroundImageFix" result="effect1_dropShadow"/>
<feBlend mode="normal" in="SourceGraphic" in2="effect1_dropShadow" result="shape"/>
</filter>
</defs>
</svg>
